<svg xmlns="http://www.w3.org/2000/svg" viewBox="0 0 1083.11 300.03"><defs><style>.cls-1{fill:#ffae00;}.cls-2{fill:#f65400;}.cls-3{fill:#f43400;}.cls-4{fill:#ff8500;}.cls-5{fill:#dd0217;}.cls-6{fill:#a6232a;}.cls-7{fill:#ffd051;}</style></defs><title>Colour-black-SVG</title><g id="Layer_2" data-name="Layer 2"><path class="cls-1" d="M121.87,214.74l79.92-18.4a4.45,4.45,0,0,0,2.69-1.83,162.06,162.06,0,0,0,19.14-39.73,1.05,1.05,0,0,0-1.53-1.24L121.2,213.06a.91.91,0,0,0,.67,1.68"/><path class="cls-2" d="M235.66,89A259.75,259.75,0,0,1,231,126.8a4.67,4.67,0,0,1-3.11,3.53L93.68,175.22a.81.81,0,0,1-.72-1.44L226.1,81l.11-.08a2.33,2.33,0,0,1,2.36-.3l.11,0h0l2.21.87A7.58,7.58,0,0,1,235.66,89"/><path class="cls-3" d="M215.44,76.59,80.2,124.84A3.66,3.66,0,0,0,77.84,129a220.14,220.14,0,0,0,9.91,34.16,2.65,2.65,0,0,0,4,1.21L216.05,77.78a.67.67,0,0,0-.61-1.19"/><path class="cls-4" d="M98.21,185.4a125.49,125.49,0,0,0,14.41,20.46,2.63,2.63,0,0,0,3.31.54l111.74-65.92a.58.58,0,0,0-.48-1L99.45,182.16a2.24,2.24,0,0,0-1.24,3.24"/><path class="cls-5" d="M154.18,69.14c-7.29,0-14.09.27-20.41.73a12.46,12.46,0,0,0-7.18,2.94L75.82,116a.72.72,0,0,0,.71,1.22L197.55,74a.75.75,0,0,0-.12-1.44,259.12,259.12,0,0,0-43.25-3.45"/><path class="cls-6" d="M111.44,72.5c-16.7,2.8-28.07,6.68-34,9.08A7.59,7.59,0,0,0,72.69,89c.16,3.52.5,8.67,1.19,15a1.29,1.29,0,0,0,2.13.85L112.15,74a.88.88,0,0,0-.71-1.54"/><path class="cls-7" d="M158.81,232.4a95.46,95.46,0,0,0,34.44-23.8.88.88,0,0,0-.85-1.46l-59.93,13.8a1.22,1.22,0,0,0-.42,2.19,92.84,92.84,0,0,0,17.51,9.28,12.43,12.43,0,0,0,9.25,0"/><path d="M299,149.17c0-31.48,20.26-49.94,44.39-49.94a39,39,0,0,1,28,12.26l-10.06,12.13c-4.78-4.64-10.33-8-17.55-8-14.45,0-25.29,12.39-25.29,32.91,0,20.77,9.8,33.29,24.9,33.29,8.13,0,14.58-3.87,19.74-9.42l10.07,11.87a38.66,38.66,0,0,1-30.45,14.07C318.62,198.34,299,181.05,299,149.17Z"/><path d="M387,176.27V93.55h18.85v83.62c0,4.26,2.06,5.68,3.87,5.68a10.62,10.62,0,0,0,2.58-.26l2.32,14.07a25.88,25.88,0,0,1-9.81,1.68C391.65,198.34,387,189.69,387,176.27Z"/><path d="M423.13,160.53c0-24.13,16.65-38.07,34.72-38.07s34.71,13.94,34.71,38.07c0,23.87-16.65,37.81-34.71,37.81S423.13,184.4,423.13,160.53Zm50.07,0c0-13.68-5.55-22.58-15.35-22.58s-15.36,8.9-15.36,22.58,5.55,22.32,15.36,22.32S473.2,174.08,473.2,160.53Z"/><path d="M507.65,169.43V124.27h19V167c0,11.23,3.1,15.1,10.07,15.1,5.93,0,9.81-2.58,14.71-9V124.27h19v72.26H554.88l-1.42-10.32H553c-6.2,7.35-13.16,12.13-23.1,12.13C514.36,198.34,507.65,187.5,507.65,169.43Z"/><path d="M586.5,160.53c0-23.62,14.71-38.07,30.32-38.07,8.13,0,13.16,3.1,18.32,7.87L634.37,119V93.55h19v103H638l-1.55-7.48h-.38c-5.29,5.16-12.52,9.29-20,9.29C598.11,198.34,586.5,184.14,586.5,160.53Zm47.87,14.71V143.49A19.2,19.2,0,0,0,621,138.07c-8.13,0-15,7.75-15,22.2,0,15,5.42,22.45,15,22.45C626,182.72,630.24,180.66,634.37,175.24Z"/><path d="M670.11,184.14l4.77-5.42a36.2,36.2,0,0,0,27.23,12.52c13.94,0,22.59-7.36,22.59-18.07,0-11.35-7.36-15-16.65-19.09L694,147.88c-8.38-3.74-19.1-9.68-19.1-23.48s11.88-23.62,27.88-23.62a35.9,35.9,0,0,1,26.58,11.36l-4.39,5a30.16,30.16,0,0,0-22.19-9.42c-12,0-20,6.32-20,16,0,10.71,9.16,14.71,16,17.68l14.06,6.19c10.71,4.78,19.75,10.71,19.75,25s-12,25.55-30.46,25.55A41.85,41.85,0,0,1,670.11,184.14Z"/><path d="M751.27,127.75h6.2l.9,8.39h.26c6.71-5.16,14.58-10.2,23-10.2,18.32,0,27.61,13.94,27.61,35.1,0,23.49-14.19,37.17-30.32,37.17-6.45,0-13.29-3-20.26-8.39l.13,12.65v24.77h-7.49ZM801.21,161c0-16.51-5.67-28.51-21-28.51-6.58,0-13.42,3.87-21.42,11v39.75c7.35,6.19,14.45,8.39,19.48,8.39C791.67,191.63,801.21,179.5,801.21,161Z"/><path d="M829.34,186.34V93.94h7.49v93.17c0,3.23,1.29,4.65,3.09,4.65a11.5,11.5,0,0,0,2.46-.26l1.16,5.93a15.07,15.07,0,0,1-5,.78C832.31,198.21,829.34,194.34,829.34,186.34Z"/><path d="M858.12,162.21c0-23,14.45-36.27,31.1-36.27s31.1,13.3,31.1,36.27-14.46,36-31.1,36S858.12,185.05,858.12,162.21Zm54.45,0c0-17.55-9.93-29.68-23.35-29.68S866,144.66,866,162.21s9.81,29.55,23.23,29.55S912.57,179.76,912.57,162.21Z"/><path d="M938,105.68a6,6,0,0,1,6.32-6.19,6.07,6.07,0,1,1-6.32,6.19Zm2.45,22.07h7.49v68.78h-7.49Z"/><path d="M975.28,176.92V134.07H964.57V128.4l11-.65.9-19.87h6.33v19.87h19.74v6.32H982.77v43.36c0,8.65,2.32,14.33,11.48,14.33a24.13,24.13,0,0,0,8.39-1.94l1.81,5.81c-4,1.42-8.39,2.58-11.49,2.58C979.41,198.21,975.28,189.69,975.28,176.92Z"/></g></svg>