<?xml version="1.0" encoding="utf-8"?>
<!-- Generator: Adobe Illustrator 23.1.1, SVG Export Plug-In . SVG Version: 6.00 Build 0)  -->
<svg version="1.1" id="Layer_1" xmlns="http://www.w3.org/2000/svg" xmlns:xlink="http://www.w3.org/1999/xlink" x="0px" y="0px"
	 viewBox="0 0 1048.4 281.1" style="enable-background:new 0 0 1048.4 281.1;" xml:space="preserve">
<style type="text/css">
	.st0{fill:#292929;}
</style>
<g>
	<path class="st0" d="M337.9,67.4l0,16.1c-8-12.2-26.4-18.9-39.9-19.4c-40.5-1.3-76.8,31.4-76.8,78.5c0,46.8,34.9,79.5,76.9,78.3
		c12.9-0.4,31.5-6.9,39.7-19.4v16.2l43.4,0V67.4L337.9,67.4z M299.3,180.4c-21.4,0-38.7-17.3-38.7-38.7s17.3-38.7,38.7-38.7
		s38.7,17.3,38.7,38.7S320.6,180.4,299.3,180.4z"/>
	<polygon class="st0" points="0,217.8 43.7,217.8 43.7,0 0.2,0 	"/>
	<path class="st0" d="M133.1,64.1c-44.1,0-77.2,33.5-77.2,78.4c0,46.2,32.6,78.4,79,78.4c32.6,0,56.7-15.1,69.1-39.5l-37.1-14.8
		c-6.9,11.2-15.7,18.1-32,18.1c-18.4,0-34.4-12.7-35.9-30.2h109.5c0.3-1.8,0.6-5.7,0.6-10.9C209.2,97,178.1,64.1,133.1,64.1z
		 M99.4,126c1.8-14.2,16-27.5,33.5-27.5c17.8,0,31.4,11.5,33.2,27.4C166,126,99.4,126,99.4,126z"/>
	<path class="st0" d="M974.6,64.3c-12.9,0-25.1,3.5-35.6,9.7v-6.6l-43.5,0v213.7h43.7l-0.1-69.8c10.5,6.1,22.6,9.6,35.5,9.6
		c40.8,0,73.8-35.1,73.8-78.4C1048.4,99.4,1015.4,64.3,974.6,64.3z M970,180.4c-12.8,0-24-6.4-30.9-16.1c-4.5-6.4-7.2-14.1-7.2-22.6
		c0-8.4,2.7-16.2,7.2-22.5c6.9-9.8,18.2-16.2,31-16.2c21,0,38.1,17.3,38.1,38.7C1008.1,163.1,991,180.4,970,180.4z"/>
	<path class="st0" d="M486.3,64.1c-19.8,0-33.4,6.2-44.2,19.4V67.4h-44.2l0,150.3h44.2v-83.8c0-19.7,11.2-30.9,28.2-30.9
		c17.3,0,27,11.2,27,30.9v83.8h44.2v-92.4C541.5,87.5,520.5,64.1,486.3,64.1z"/>
	<g>
		<path class="st0" d="M706.7,64.1c0,0-76.5,0-76.5,0c-42.2,0-76.5,35.2-76.5,78.4c0,43.3,34.2,78.4,76.5,78.4s76.5-35.1,76.5-78.4
			c0-14.5-3.8-28-10.5-39.7l10.5,0L706.7,64.1z M630.2,180.4c-21,0-38.1-17.3-38.1-38.7s17.1-38.7,38.1-38.7s38.1,17.3,38.1,38.7
			S651.2,180.4,630.2,180.4z"/>
		
			<rect x="608.4" y="182.8" transform="matrix(1.072603e-03 -1 1 1.072603e-03 370.1747 889.1797)" class="st0" width="43.5" height="153"/>
	</g>
	<path class="st0" d="M835.5,67.4l0,16.1c-8-12.2-26.4-18.9-39.9-19.4c-40.5-1.3-76.8,31.4-76.8,78.5c0,46.8,34.9,79.5,76.9,78.3
		c12.9-0.4,31.5-6.9,39.7-19.4v16.2l43.4,0V67.4L835.5,67.4z M796.8,180.4c-21.3,0-38.7-17.3-38.7-38.7s17.3-38.7,38.7-38.7
		s38.7,17.3,38.7,38.7S818.2,180.4,796.8,180.4z"/>
</g>
</svg>
