<?xml version="1.0" encoding="utf-8"?>
<!-- Generator: Adobe Illustrator 20.0.0, SVG Export Plug-In . SVG Version: 6.00 Build 0)  -->
<svg version="1.1" id="Layer_1" xmlns="http://www.w3.org/2000/svg" xmlns:xlink="http://www.w3.org/1999/xlink" x="0px" y="0px"
	 viewBox="0 0 400 100" style="enable-background:new 0 0 400 100;" xml:space="preserve">
<style type="text/css">
	.st0{fill:#FFFFFF;}
	.st1{fill:#ED1B34;}
</style>
<g>
	<path class="st0" d="M78.2,67.2L61.2,44.3v22.9H46.3V24.4h16.6l16.4,22.5V24.4h14.9v42.8H78.2z"/>
	<path class="st0" d="M136,62.7c-3.4,3.3-9.3,4.9-17.9,4.9c-8.7,0-15.2-1.9-18.8-6.1c-2.2-2.4-3.4-5.5-3.4-9.5
		c0-3.6,1.2-6.8,3.6-9.3c3.8-4,10-6.2,18.7-6.2c10.6,0,17.2,3.8,20.1,9.4c1.3,2.7,1.8,5.8,1.5,9.2h-29.6c0.1,0.9,0.4,1.8,1.2,2.7
		c1.2,1.2,3.6,1.9,6.7,1.9c2.6,0,4.4-0.4,5.6-1.1c1-0.5,1.6-1.2,1.7-1.7h14.1C139,58.9,137.8,61,136,62.7z M124.4,46.6
		c-1.1-1.2-3.3-2.1-6.4-2.1c-2.9,0-5.2,0.8-6.5,2c-0.8,0.8-1.3,1.9-1.4,2.6h15.4C125.5,48.5,125.2,47.5,124.4,46.6z"/>
	<path class="st0" d="M192.9,67.2h-16.4c0,0-5-12.8-5.2-14.2c-0.1-0.5-0.4-3.3-0.4-3.3s-0.4,2.7-0.5,3.2c-0.1,1.5-5.1,14.3-5.1,14.3
		h-16.6l-12.1-29.8h14.9l6.3,18.9l5.7-18.9h15.9l5.8,18.9l5.9-18.9h14.2L192.9,67.2z"/>
	<path class="st0" d="M224.7,67.7c-13.2,0-19.3-2.4-21-7.6c-0.4-1.1-0.4-1.8-0.4-2.8h14.3c0.1,0.4,0.1,0.8,0.4,1.4
		c0.6,1,2.5,1.4,6.7,1.4c4.1,0,5.4-0.6,5.4-1.8c0-1.1-1.4-1.4-5.7-2c-1.5-0.2-7.1-1-8.7-1.2c-7.7-1-11.9-3.6-11.9-9.1
		c0-5.8,6.5-9.4,18.8-9.4c10.9,0,17.5,2.4,19.5,7c0.4,1,0.8,2.9,0.7,3.5h-13.9c-0.1-0.3-0.3-1-0.5-1.3c-0.6-0.6-2-1.1-5.2-1.1
		c-4.2,0-5.3,0.5-5.3,1.5c0,1,0.6,1.2,4.5,1.8c1.7,0.2,7.7,1,9.4,1.2c8.2,1.1,12.4,3.6,12.4,9.1C244.2,64.4,238,67.7,224.7,67.7z"/>
	<path class="st0" d="M274.7,40.3V24h14.5c0,0,0,29.9,0,38.5c0,1.8,0.4,4.5,0.4,4.5h-13.4l-1.1-3.8c-1.6,2.3-6.2,4.3-12.8,4.3
		c-6.2,0-11.1-1.8-14.1-5.4c-2.2-2.5-3.4-5.7-3.4-9.8c0-4,1.2-7.2,3.4-9.7c2.9-3.5,8.4-5.8,14.8-5.8C268.1,36.8,272.6,38,274.7,40.3
		z M260.9,47.8c-1,1.1-1.5,2.9-1.5,4.5c0,1.6,0.4,3.2,1.3,4.3c1.1,1.4,3.1,2.4,6.5,2.4c3.1,0,5-0.8,6.3-2c1.1-1.1,1.7-2.9,1.7-4.7
		c0-1.8-0.6-3.7-1.8-4.7c-1.2-1.1-3.1-1.9-5.9-1.9C264.2,45.7,262.1,46.5,260.9,47.8z"/>
	<path class="st0" d="M319.9,67.2c-0.3,0-0.6-1.3-0.6-2.5c-2.6,1.8-7.5,2.9-14.5,2.9c-7.8,0-13.5-2.3-13.9-7.5
		c0-0.4-0.1-1.5,0.1-2.3c0.3-4.9,6.1-8.7,19-9.1c2.8-0.1,5.7,0,8.9,0.3c-0.1-0.8-0.1-1.3-0.5-2.1c-0.6-1.2-2.4-2-5.2-2
		c-2.4,0-4,0.3-5,1c-0.8,0.6-1.3,1.4-1.4,2h-13.9c0.1-1.4,0.6-3.5,1.7-4.9c3.3-4.8,9.8-6.4,19.2-6.4c11.4,0,17.6,3.2,18.9,8.5
		c0.4,1.7,0.7,4.9,0.6,7.6c-0.1,1.7-0.1,5-0.1,7.6c0,2.8,0.1,6.1,0.8,6.8H319.9z M312.9,54.5c-5,0-7.2,1.2-7.2,3.4
		c0,1.4,1.4,2.1,4.7,2.1c3.6,0,7.4-1,8.6-4.8C317.2,54.8,316.2,54.5,312.9,54.5z"/>
	<path class="st0" d="M356.6,76.5h-15.3l4.9-9.1l-15.8-30h15.4c0.1,0.4,8.1,17.9,8.2,18.3c0.1-0.5,8-17.8,8-18.3H377L356.6,76.5z"/>
	<g>
		<path class="st1" d="M37.3,65.9c-5.5-3.3-2.2-7.2,7.5-10.7l-3.4-1c-12.7,3.9-17.9,8.5-11.9,12.4c9,5.9,40.5,8.2,73.4,5.7
			C72.7,73.5,45.8,71.1,37.3,65.9z"/>
	</g>
</g>
</svg>
